<svg width="56" height="56" viewBox="0 0 56 56" fill="none" xmlns="http://www.w3.org/2000/svg">
<rect width="56" height="56" rx="28" fill="#1C1642"/>
<path d="M28 22.4102C24.75 22.4102 22.1602 25.0508 22.1602 28.25C22.1602 31.5 24.75 34.0898 28 34.0898C31.1992 34.0898 33.8398 31.5 33.8398 28.25C33.8398 25.0508 31.1992 22.4102 28 22.4102ZM28 32.0586C25.918 32.0586 24.1914 30.3828 24.1914 28.25C24.1914 26.168 25.8672 24.4922 28 24.4922C30.082 24.4922 31.7578 26.168 31.7578 28.25C31.7578 30.3828 30.082 32.0586 28 32.0586ZM35.4141 22.207C35.4141 21.4453 34.8047 20.8359 34.043 20.8359C33.2812 20.8359 32.6719 21.4453 32.6719 22.207C32.6719 22.9688 33.2812 23.5781 34.043 23.5781C34.8047 23.5781 35.4141 22.9688 35.4141 22.207ZM39.2734 23.5781C39.1719 21.75 38.7656 20.125 37.4453 18.8047C36.125 17.4844 34.5 17.0781 32.6719 16.9766C30.793 16.875 25.1562 16.875 23.2773 16.9766C21.4492 17.0781 19.875 17.4844 18.5039 18.8047C17.1836 20.125 16.7773 21.75 16.6758 23.5781C16.5742 25.457 16.5742 31.0938 16.6758 32.9727C16.7773 34.8008 17.1836 36.375 18.5039 37.7461C19.875 39.0664 21.4492 39.4727 23.2773 39.5742C25.1562 39.6758 30.793 39.6758 32.6719 39.5742C34.5 39.4727 36.125 39.0664 37.4453 37.7461C38.7656 36.375 39.1719 34.8008 39.2734 32.9727C39.375 31.0938 39.375 25.457 39.2734 23.5781ZM36.8359 34.9531C36.4805 35.9688 35.668 36.7305 34.7031 37.1367C33.1797 37.7461 29.625 37.5938 28 37.5938C26.3242 37.5938 22.7695 37.7461 21.2969 37.1367C20.2812 36.7305 19.5195 35.9688 19.1133 34.9531C18.5039 33.4805 18.6562 29.9258 18.6562 28.25C18.6562 26.625 18.5039 23.0703 19.1133 21.5469C19.5195 20.582 20.2812 19.8203 21.2969 19.4141C22.7695 18.8047 26.3242 18.957 28 18.957C29.625 18.957 33.1797 18.8047 34.7031 19.4141C35.668 19.7695 36.4297 20.582 36.8359 21.5469C37.4453 23.0703 37.293 26.625 37.293 28.25C37.293 29.9258 37.4453 33.4805 36.8359 34.9531Z" fill="white"/>
</svg>
