<svg width="23" height="24" viewBox="0 0 23 24" fill="none" xmlns="http://www.w3.org/2000/svg">
<path opacity="0.6" d="M0 0.875V23.625H22.75V0.875H0ZM18.8906 6.30859L17.6719 7.47656C17.5703 7.52734 17.5195 7.67969 17.5195 7.78125V16.4141C17.5195 16.5156 17.5703 16.668 17.6719 16.7188L18.8398 17.8867V18.1406H12.8477V17.8867L14.1172 16.7188C14.2188 16.5664 14.2188 16.5664 14.2188 16.3633V9.40625L10.7656 18.1406H10.3086L6.34766 9.40625V15.2461C6.29688 15.5 6.39844 15.7539 6.55078 15.9062L8.17578 17.8867V18.1406H3.60547V17.8867L5.17969 15.9062C5.38281 15.7539 5.43359 15.5 5.38281 15.2461V8.49219C5.43359 8.33984 5.33203 8.13672 5.23047 7.98438L3.80859 6.30859V6.00391H8.22656L11.6289 13.5195L14.6758 6.05469H18.8906V6.30859Z" fill="#1C1642"/>
</svg>
